<?xml version="1.0" standalone="no"?>
<!DOCTYPE svg PUBLIC "-//W3C//DTD SVG 20010904//EN"
 "http://www.w3.org/TR/2001/REC-SVG-20010904/DTD/svg10.dtd">
<svg version="1.0" xmlns="http://www.w3.org/2000/svg"
 width="512.000000pt" height="512.000000pt" viewBox="0 0 512.000000 512.000000"
 preserveAspectRatio="xMidYMid meet">

<g transform="translate(0.000000,512.000000) scale(0.100000,-0.100000)"
fill="#000000" stroke="none">
<path d="M735 4265 c-5 -2 -23 -6 -40 -10 -22 -5 -117 -93 -348 -323 -175
-174 -325 -329 -333 -344 -17 -33 -18 -72 -2 -101 20 -39 630 -656 664 -672
26 -12 81 -15 307 -15 l275 0 30 25 c36 30 47 70 32 111 -6 16 -66 84 -133
152 l-122 122 195 0 195 0 325 -325 325 -325 -325 -325 -325 -325 -195 0 -195
0 122 123 c67 67 127 135 133 151 15 41 4 81 -32 111 l-30 25 -275 0 c-226 0
-281 -3 -307 -15 -34 -16 -644 -633 -664 -672 -16 -29 -15 -68 2 -101 18 -33
631 -644 666 -663 28 -15 466 -26 549 -14 63 9 101 49 101 106 0 41 -4 47
-127 171 l-127 128 294 0 c162 0 311 4 330 10 23 6 62 37 114 89 68 69 79 84
78 113 -1 40 -32 68 -74 68 -23 0 -45 -15 -97 -65 l-68 -65 -372 0 c-236 0
-379 -4 -392 -10 -28 -15 -51 -67 -44 -99 3 -17 54 -75 135 -156 72 -72 130
-133 130 -137 0 -5 -81 -8 -180 -8 l-180 0 -296 292 -295 292 293 293 293 293
184 0 185 0 -137 -138 c-125 -127 -137 -142 -137 -175 0 -24 8 -45 24 -64 l24
-28 288 -3 c241 -2 295 0 329 12 31 12 252 228 1000 976 l960 960 373 0 c237
0 380 4 393 10 28 15 51 67 44 99 -3 17 -54 75 -135 156 -72 72 -130 133 -130
137 0 5 81 8 181 8 l181 0 294 -292 295 -292 -293 -293 -293 -293 -184 0 -185
0 137 138 c125 127 137 142 137 175 0 24 -8 45 -24 64 l-24 28 -284 3 c-191 2
-296 0 -323 -8 -34 -10 -158 -130 -832 -803 -440 -440 -794 -801 -798 -814 -6
-27 17 -78 40 -87 44 -17 62 -3 292 226 l233 233 413 -413 c317 -316 420 -414
447 -422 20 -6 163 -10 329 -10 l295 0 -127 -128 c-123 -124 -127 -130 -127
-171 0 -57 38 -97 101 -106 83 -12 521 -1 549 14 35 19 648 630 666 663 17 33
18 72 2 101 -20 39 -630 656 -664 672 -26 12 -81 15 -307 15 l-275 0 -30 -25
c-36 -30 -47 -70 -32 -111 6 -16 66 -84 133 -151 l122 -123 -195 0 -195 0
-325 325 -325 325 325 325 325 325 195 0 195 0 -122 -122 c-67 -68 -127 -136
-133 -152 -15 -41 -4 -81 32 -111 l30 -25 275 0 c226 0 281 3 307 15 34 16
644 633 664 672 16 29 15 68 -2 101 -18 33 -631 644 -666 663 -28 15 -466 26
-549 14 -63 -9 -101 -49 -101 -106 0 -41 4 -47 127 -171 l127 -128 -295 0
c-166 0 -309 -4 -329 -10 -27 -8 -130 -106 -447 -422 l-413 -413 -228 228
c-202 201 -231 227 -259 227 -40 0 -73 -33 -73 -74 0 -26 32 -62 227 -258
l228 -228 -123 -122 -122 -123 -337 337 c-280 278 -345 338 -378 348 -27 8
-131 10 -323 8 l-284 -3 -24 -28 c-16 -19 -24 -40 -24 -64 0 -33 12 -48 137
-175 l137 -138 -185 0 -184 0 -293 293 -293 293 295 292 295 292 181 0 c99 0
180 -3 180 -8 0 -4 -58 -65 -130 -137 -81 -81 -132 -139 -135 -156 -7 -32 16
-84 44 -99 13 -6 156 -10 392 -10 l372 0 73 -70 c80 -78 108 -87 149 -45 44
44 35 71 -58 163 -53 53 -95 86 -117 92 -20 6 -164 10 -329 10 l-295 0 127
128 c120 122 127 131 127 169 0 51 -29 89 -78 103 -33 9 -491 14 -517 5z
m2510 -2145 c248 -248 340 -334 370 -346 34 -12 88 -14 329 -12 l288 3 24 28
c16 19 24 40 24 64 0 33 -12 48 -137 175 l-137 138 185 0 184 0 293 -293 293
-293 -295 -292 -295 -292 -180 0 c-100 0 -181 3 -181 8 0 4 58 65 130 137 81
81 132 139 135 156 7 32 -16 84 -44 99 -13 6 -156 10 -393 10 l-373 0 -400
400 -400 400 120 120 c66 66 122 120 125 120 3 0 154 -149 335 -330z"/>
</g>
</svg>
